<svg width="178" height="50" viewBox="0 0 178 50" fill="none" xmlns="http://www.w3.org/2000/svg">
<path d="M22.8979 49.2338C22.0141 48.8391 16.4704 43.7861 10.6857 38.0225C2.4103 30.0483 0 27.206 0 25.627C0 24.0479 2.57099 20.8898 11.0874 12.284C20.8893 2.25696 22.4158 0.993713 24.7458 0.993713C26.7543 0.993713 28.2005 1.70429 30.3698 3.83601L33.2622 6.75726L30.9322 9.12584L28.6022 11.4944L26.7543 9.75746C25.1475 8.25736 24.7458 8.17841 23.862 9.2048C23.2996 9.83642 19.4431 13.7841 15.2652 18.1265L7.63262 25.8638L16.4704 34.0749L25.3082 42.207L30.3698 37.312C33.1818 34.6276 36.9579 30.6799 38.7255 28.6272L42.0196 24.8374L38.6452 21.4425L35.3511 18.1265L37.6007 15.9947C38.8058 14.8104 40.252 13.863 40.6537 13.863C41.0555 13.863 43.3051 15.7579 45.635 18.0475C52.2232 24.6006 51.9822 25.2322 39.6093 37.8646C27.0757 50.4971 26.2723 51.0497 22.8979 49.2338Z" fill="#3C9D9B"/>
<path d="M41.3768 48.4443C40.493 47.9706 38.8058 46.7073 37.5203 45.602L35.351 43.5492L37.922 40.9438C40.493 38.3383 40.493 38.3383 42.1802 39.9174L43.8674 41.4964L52.4642 32.9695L61.0609 24.5216L52.3838 15.9947L43.7871 7.54676L34.9493 16.2316L26.1919 24.9164L29.727 28.4692L33.2621 32.0221L30.8518 34.3907L28.4415 36.8382L23.4602 31.7063C20.5679 28.785 18.4789 25.9427 18.4789 24.9953C18.4789 23.0215 38.6451 1.4674 41.5375 0.362064C42.5016 -0.0326998 44.0281 -0.0326998 44.9119 0.283111C45.7957 0.598922 51.4197 5.41504 57.3651 10.9417C71.9073 24.5216 71.9073 23.1004 57.2044 38.1804C46.1171 49.4707 44.8316 50.3391 41.3768 48.4443Z" fill="#3C9D9B"/>
<path d="M40.9751 48.1285C39.8503 47.3389 38.1631 46.0757 37.1186 45.2072L35.351 43.5492L37.922 40.9438C40.493 38.3383 40.493 38.3383 42.1802 39.9174L43.8674 41.4964L52.4642 32.9695L61.0609 24.5216L52.3838 15.9947L43.7871 7.54676L34.9493 16.2316L26.1919 24.9164L29.727 28.4692L33.2621 32.0221L30.8518 34.3907L28.4415 36.8382L23.4602 31.7063C20.4875 28.7061 18.4789 25.9427 18.4789 24.9164C18.4789 23.89 20.8892 20.7319 24.6654 16.7842C28.1201 13.2314 32.8604 8.25733 35.351 5.6519C40.0913 0.677873 42.5016 -0.664323 44.9119 0.28311C45.7153 0.598921 51.3394 5.41504 57.3651 11.0207C71.9073 24.4426 71.8269 23.1794 57.6062 37.7067C51.4197 44.0229 46.1974 48.7601 44.9923 48.9969C43.7871 49.2338 42.1802 48.918 40.9751 48.1285Z" fill="#52DE97"/>
<path d="M100.228 35.4385C97.2604 34.8453 96.0846 33.3354 95.8607 29.7222C95.4687 24.2755 98.4363 20.7163 103.252 20.8242C106.667 20.8242 108.403 22.0106 109.131 24.8148C110.978 31.34 106.499 36.7328 100.228 35.4385ZM104.539 32.149C105.379 31.34 105.435 26.1091 104.651 24.653C104.259 24.0059 103.475 23.6284 102.356 23.6284C101.068 23.6284 100.564 23.952 100.116 25.1384C99.4441 26.8101 99.836 30.9625 100.788 32.0411C101.572 32.9579 103.643 33.0118 104.539 32.149Z" fill="#3C9D9B"/>
<path d="M114.73 35.4925C112.266 34.8993 110.978 33.3893 110.474 30.2615C110.194 28.428 110.362 27.1876 111.146 25.3541C112.546 22.1184 114.562 20.7703 117.809 20.8242C122.345 20.8781 124.248 22.9274 124.248 27.8348C124.248 33.1736 119.993 36.625 114.73 35.4925ZM119.993 31.0704C120.665 29.183 119.769 24.707 118.593 24.0059C118.089 23.7363 117.025 23.6284 116.241 23.8441C114.786 24.1677 114.73 24.3834 114.73 27.4573C114.73 31.7176 115.402 32.904 117.697 32.6883C119.041 32.5804 119.601 32.149 119.993 31.0704Z" fill="#3C9D9B"/>
<path d="M128.728 35.4925C126.712 35.0071 125.368 33.7129 125.368 32.2568C125.368 30.0458 129.064 29.183 129.4 31.3401C129.511 32.3108 129.903 32.5265 131.527 32.5265C133.095 32.5265 133.487 32.3108 133.487 31.5019C133.487 30.7469 132.535 30.0997 129.847 29.0751C126.992 27.9426 126.152 27.4034 126.04 26.3787C125.536 22.9274 128.056 20.8242 132.703 20.8242C135.951 20.8242 137.126 21.5792 137.126 23.6284C137.126 25.8395 134.159 26.7562 133.599 24.707C133.375 23.8981 132.815 23.6284 131.527 23.6284C128.784 23.6284 129.567 25.3002 132.927 26.4866C136.398 27.7269 137.686 28.8055 137.686 30.4772C137.686 34.0364 133.319 36.4632 128.728 35.4925Z" fill="#3C9D9B"/>
<path d="M153.924 35.4925C149.332 34.4678 147.989 28.2662 151.292 23.5745C153.532 20.3388 159.131 19.7456 161.987 22.4959C163.666 24.1677 163.89 29.7222 162.378 32.095C160.419 35.061 157.507 36.2474 153.924 35.4925ZM159.019 31.34C159.691 29.6144 159.299 25.4619 158.291 24.3295C157.955 23.898 156.891 23.6284 155.939 23.7362C154.204 23.898 154.204 23.952 154.036 27.2415C153.812 31.394 154.484 32.7961 156.779 32.7961C158.067 32.7961 158.571 32.4725 159.019 31.34Z" fill="#3C9D9B"/>
<path d="M168.929 35.6543C168.09 35.4925 166.746 34.6836 165.962 33.8208C164.786 32.4186 164.562 31.6097 164.562 28.8594C164.562 23.4667 167.138 20.7164 172.065 20.7703C174.473 20.8242 175.088 21.0399 176.432 22.496C177.776 23.952 178 24.6531 178 27.4573C178 33.3354 174.585 36.4093 168.929 35.6543ZM173.409 32.149C174.361 31.2322 174.249 26.2709 173.185 24.8148C172.233 23.5206 170.217 23.2509 169.153 24.2756C168.202 25.1923 168.313 30.1537 169.377 31.6097C170.329 32.904 172.345 33.1736 173.409 32.149Z" fill="#3C9D9B"/>
<path d="M79.6791 34.1443C79.2312 33.4432 78.9512 32.5804 79.1192 32.3108C79.6231 31.6097 79.6231 17.5885 79.1192 16.4021C78.7833 15.5932 79.0632 15.4853 81.1909 15.6471L83.6545 15.8089L83.9345 19.7456L84.2144 23.7363L85.8942 22.4959C88.4138 20.6085 89.4216 19.2603 90.1495 17.0492C90.5414 15.9168 91.0454 15 91.3253 15C92.6131 15 94.0129 16.2403 94.0129 17.3728C94.0129 18.7749 91.3813 22.5499 89.5336 23.7902L88.3018 24.5991L89.9815 26.9719C91.8852 29.6683 94.5168 32.2568 95.2447 32.2568C95.5247 32.2568 95.6927 32.904 95.5807 33.7668C95.4687 34.9532 95.1327 35.2768 93.621 35.3846C91.3253 35.6003 88.7497 33.4432 86.1741 29.0751C85.1103 27.2955 83.9905 25.7855 83.7665 25.7855C83.5425 25.7855 83.4865 27.9966 83.7105 30.639L84.1024 35.4925H82.3667C81.1349 35.4925 80.351 35.115 79.6791 34.1443Z" fill="#3C9D9B"/>
<path d="M141.55 34.0903C140.318 32.85 140.206 32.3107 140.318 28.4279C140.43 24.4912 140.374 24.1677 139.366 24.1677C137.798 24.1677 137.798 21.687 139.366 21.2016C140.262 20.932 140.486 20.3927 140.486 18.721C140.486 16.7257 140.598 16.6178 142.166 16.6178C143.957 16.6178 144.965 17.8042 144.965 20.0692C144.965 21.3095 145.133 21.3634 146.981 21.0938C148.885 20.7702 148.997 20.8241 148.773 22.3341C148.605 23.6823 148.325 23.898 146.645 24.0598C144.237 24.2755 143.845 24.8148 143.845 28.3201C143.845 31.7175 144.797 32.9039 147.205 32.4186C148.605 32.2029 148.885 32.3107 148.885 33.1736C148.885 34.7914 147.765 35.4925 145.245 35.4925C143.453 35.4925 142.614 35.1689 141.55 34.0903Z" fill="#3C9D9B"/>
</svg>
