<svg width="54" height="40" viewBox="0 0 54 40" fill="none" xmlns="http://www.w3.org/2000/svg">
<g clip-path="url(#clip0)">
<path d="M4.03117 13.9734C4.56247 14.3305 6.16398 15.3909 8.83581 17.1543C11.5077 18.9176 13.5546 20.2753 14.9765 21.2275C15.1327 21.3318 15.4646 21.5587 15.9723 21.9084C16.4801 22.2584 16.9021 22.5412 17.2378 22.7569C17.5738 22.9725 17.98 23.2144 18.4568 23.4822C18.9334 23.7497 19.3827 23.9509 19.8046 24.0842C20.2265 24.2185 20.6171 24.285 20.9764 24.285H21H21.0236C21.383 24.285 21.7737 24.2184 22.1957 24.0842C22.6174 23.9509 23.0671 23.7495 23.5433 23.4822C24.0197 23.2141 24.4259 22.9724 24.7619 22.7569C25.0979 22.5412 25.5195 22.2584 26.0275 21.9084C26.5352 21.5584 26.8675 21.3318 27.0237 21.2275C28.4609 20.2753 32.1175 17.857 37.9923 13.9729C39.1329 13.2143 40.0858 12.299 40.8513 11.2275C41.6174 10.1565 42 9.03293 42 7.85746C42 6.87518 41.6287 6.03434 40.8864 5.335C40.1442 4.6355 39.2652 4.28595 38.2499 4.28595H3.74984C2.5468 4.28595 1.62097 4.67279 0.972535 5.44648C0.324178 6.22033 0 7.1876 0 8.34821C0 9.28569 0.42983 10.3016 1.28908 11.3953C2.14824 12.489 3.06258 13.3485 4.03117 13.9734Z" fill="#394A6D"/>
<path d="M39.656 16.3616C34.5315 19.6648 30.6404 22.232 27.9845 24.0626C27.0939 24.6873 26.3714 25.175 25.8165 25.5245C25.2617 25.8742 24.5238 26.2314 23.6017 26.5958C22.68 26.9607 21.821 27.1426 21.024 27.1426H21.0001H20.9765C20.1797 27.1426 19.3202 26.9607 18.3984 26.5958C17.4767 26.2314 16.7383 25.8742 16.1836 25.5245C15.6291 25.175 14.9064 24.6873 14.0158 24.0626C11.9063 22.5895 8.02359 20.0221 2.36743 16.3616C1.47657 15.7965 0.687514 15.1487 0 14.4197V32.1424C0 33.1251 0.36703 33.9655 1.1015 34.6649C1.83581 35.3646 2.71878 35.7143 3.75009 35.7143H38.2502C39.2813 35.7143 40.1642 35.3646 40.8986 34.6649C41.6332 33.9653 42.0001 33.1252 42.0001 32.1424V14.4197C41.3281 15.1336 40.5471 15.7814 39.656 16.3616Z" fill="#394A6D"/>
</g>
<circle cx="48.5" cy="5.5" r="5.5" fill="#E63A3A"/>
<defs>
<clipPath id="clip0">
<rect width="42" height="40" fill="white"/>
</clipPath>
</defs>
</svg>
